<svg xmlns="http://www.w3.org/2000/svg" xmlns:xlink="http://www.w3.org/1999/xlink" id="Layer_1" data-name="Layer 1" viewBox="0 0 1024 1024"><defs>
    <style>
      .cls-1 {
        fill: url(#linear-gradient-2);
      }

      .cls-2 {
        fill: #6366f1;
      }

      .cls-3 {
        fill: #33d6c6;
      }

      .cls-4 {
        fill: #a970ff;
      }

      .cls-5 {
        fill: url(#linear-gradient);
      }
    </style>
    <linearGradient id="linear-gradient" x1="312.56" y1="897.19" x2="312.56" y2="2" gradientUnits="userSpaceOnUse">
      <stop offset="0" stop-color="#a970ff"></stop>
      <stop offset="1" stop-color="#6366f1"></stop>
    </linearGradient>
    <linearGradient id="linear-gradient-2" x1="711.44" y1="126.81" x2="711.44" y2="1022" gradientUnits="userSpaceOnUse">
      <stop offset="0" stop-color="#6366f1"></stop>
      <stop offset="1" stop-color="#33d6c6"></stop>
    </linearGradient>
  </defs><path class="cls-5" d="m512,2c-53.6,0-98.47,38.16-108.84,88.73-75.07,19.29-143.32,58.26-198.74,113.68-55.42,55.42-94.39,123.68-113.68,198.74-50.58,10.38-88.73,55.24-88.73,108.84s38.16,98.47,88.73,108.84c13.62,53.14,37.03,102.64,69.77,147.47,37.14,50.86,85.83,93.86,140.81,124.33,5.54,3.08,11.56,4.54,17.48,4.54,12.7,0,25.02-6.72,31.61-18.61,9.68-17.44,3.38-39.42-14.07-49.09-85.32-47.32-147.22-125.71-173.38-218.21,36.3-18.29,61.27-55.92,61.27-99.28s-24.94-80.97-61.23-99.27c34.22-119.96,129.79-215.52,249.74-249.74,18.3,36.29,55.92,61.23,99.27,61.23,61.27,0,111.11-49.84,111.11-111.11S573.27,2,512,2ZM113.11,473.11c21.44,0,38.89,17.44,38.89,38.89,0,20.1-15.32,36.69-34.91,38.69h-.01c-.18.02-.36.03-.53.04-1.13.1-2.28.16-3.43.16-21.44,0-38.89-17.44-38.89-38.89s17.44-38.89,38.89-38.89Zm398.89-321.11c-21.44,0-38.89-17.44-38.89-38.89s17.44-38.89,38.89-38.89,38.89,17.44,38.89,38.89-17.44,38.89-38.89,38.89Z"></path><path class="cls-1" d="m933.27,403.16c-13.62-53.14-37.03-102.64-69.77-147.47-37.14-50.86-85.83-93.86-140.81-124.33-17.44-9.68-39.42-3.38-49.09,14.07-9.68,17.44-3.38,39.42,14.07,49.09,85.32,47.32,147.22,125.71,173.38,218.21-36.3,18.29-61.27,55.92-61.27,99.28s24.94,80.97,61.23,99.27c-34.22,119.96-129.79,215.52-249.74,249.74-18.3-36.29-55.92-61.23-99.27-61.23-61.27,0-111.11,49.84-111.11,111.11s49.84,111.11,111.11,111.11c53.6,0,98.47-38.16,108.84-88.73,75.07-19.29,143.32-58.26,198.74-113.68,55.42-55.42,94.39-123.68,113.68-198.74,50.58-10.38,88.73-55.24,88.73-108.84s-38.16-98.47-88.73-108.84Zm-421.27,546.62c-21.44,0-38.89-17.44-38.89-38.89s17.44-38.89,38.89-38.89,38.89,17.44,38.89,38.89-17.44,38.89-38.89,38.89Zm398.89-398.89c-21.44,0-38.89-17.44-38.89-38.89,0-20.03,15.22-36.58,34.72-38.67.38-.04.77-.08,1.16-.11h.02c.99-.08,1.99-.11,2.99-.11,21.44,0,38.89,17.44,38.89,38.89s-17.44,38.89-38.89,38.89Z"></path><g>
    <path class="cls-4" d="m735.02,517.56c-153.82,30.87-186.59,63.64-217.46,217.46-1.22,6.08-9.9,6.08-11.12,0-30.87-153.82-63.64-186.59-217.46-217.46-6.08-1.22-6.08-9.9,0-11.12,153.82-30.87,186.59-63.64,217.46-217.46,1.22-6.08,9.9-6.08,11.12,0,30.87,153.82,63.64,186.59,217.46,217.46,6.08,1.22,6.08,9.9,0,11.12Z"></path>
    <path class="cls-2" d="m434.06,665.85c-51.08,10.25-61.96,21.13-72.22,72.22-.41,2.02-3.29,2.02-3.69,0-10.25-51.08-21.13-61.96-72.22-72.22-2.02-.41-2.02-3.29,0-3.69,51.08-10.25,61.96-21.13,72.22-72.22.41-2.02,3.29-2.02,3.69,0,10.25,51.08,21.13,61.96,72.22,72.22,2.02.41,2.02,3.29,0,3.69Z"></path>
    <path class="cls-3" d="m738.07,361.84c-51.08,10.25-61.96,21.13-72.22,72.22-.41,2.02-3.29,2.02-3.69,0-10.25-51.08-21.13-61.96-72.22-72.22-2.02-.41-2.02-3.29,0-3.69,51.08-10.25,61.96-21.13,72.22-72.22.41-2.02,3.29-2.02,3.69,0,10.25,51.08,21.13,61.96,72.22,72.22,2.02.41,2.02,3.29,0,3.69Z"></path>
  </g></svg>