<svg xmlns="http://www.w3.org/2000/svg" viewBox="0 0 880 202" width="880" height="202" role="img" aria-label="Wildcard, Fixed Values, Combine, Derivation and Constraint modules resolve inside WP Context, which emits resolved dollar-variables that fill the WP Prompt Assembler template, which CLIP Encode turns into conditioning">
  <style><![CDATA[
    .frame, .card, .pill, .chip { stroke-width: 1; }
    .cap { font: 400 10px 'Segoe UI', -apple-system, BlinkMacSystemFont, system-ui, sans-serif; letter-spacing: .06em; }
    .feeder { font: 400 10.5px 'Segoe UI', -apple-system, BlinkMacSystemFont, system-ui, sans-serif; }
    .nm { font: 600 12px 'Segoe UI', -apple-system, BlinkMacSystemFont, system-ui, sans-serif; }
    .id { font: 400 9.5px 'JetBrains Mono', Consolas, Monaco, 'Courier New', monospace; }
    .lbl, .varcap { font: 400 9.5px 'Segoe UI', -apple-system, BlinkMacSystemFont, system-ui, sans-serif; letter-spacing: .05em; }
    .chipt { font: 400 10.5px 'JetBrains Mono', Consolas, Monaco, 'Courier New', monospace; }

    .frame { fill: #1e1e1e; stroke: #3a3a3a; }
    .card { fill: #232323; stroke: #4a4a4a; }
    .card--wp { stroke: #2dd4bf; stroke-opacity: .55; }
    .ico--wp { color: #2dd4bf; }
    .ico--ext { color: #aaaaaa; }
    .ico--wildcard { color: #a78bfa; }
    .ico--fixed { color: #22d3ee; }
    .ico--combine { color: #34d399; }
    .ico--derivation { color: #fbbf24; }
    .ico--constraint { color: #f472b6; }
    .pill { fill: #232323; stroke: #3a3a3a; }
    .feeder { fill: #aaaaaa; }
    .nm { fill: #dddddd; }
    .id, .lbl, .cap, .varcap { fill: #666666; }
    .ln { stroke: #4a4a4a; }
    .wash { stop-color: #2dd4bf; }
    .flow0 { stop-color: #4a4a4a; }
    .head { fill: #4a4a4a; }
    .chip { fill: #232323; }
    .chip--a { stroke: #8b5cf6; stroke-opacity: .4; }
    .chip--b { stroke: #22d3ee; stroke-opacity: .4; }
    .chip--c { stroke: #34d399; stroke-opacity: .4; }
    .chipt--a { fill: #c4b5fd; }
    .chipt--b { fill: #67e8f9; }
    .chipt--c { fill: #86efac; }
    @media (prefers-color-scheme: light) {
      .frame { fill: #f5f5f5; stroke: #b0b0b0; }
      .card { fill: #ffffff; stroke: #999999; }
      .card--wp { stroke: #0f766e; stroke-opacity: .55; }
      .ico--wp { color: #0f766e; }
      .ico--ext { color: #555555; }
      .ico--wildcard { color: #6d28d9; }
      .ico--fixed { color: #1d4ed8; }
      .ico--combine { color: #065f46; }
      .ico--derivation { color: #92400e; }
      .ico--constraint { color: #9d174d; }
      .pill { fill: #ffffff; stroke: #b0b0b0; }
      .feeder { fill: #555555; }
      .nm { fill: #1a1a1a; }
      .id,   .lbl,   .cap,   .varcap { fill: #888888; }
      .ln { stroke: #999999; }
      .wash { stop-color: #0f766e; }
      .flow0 { stop-color: #999999; }
      .head { fill: #999999; }
      .chip { fill: #ffffff; }
      .chip--a { stroke: #8b5cf6; stroke-opacity: .4; }
      .chip--b { stroke: #22d3ee; stroke-opacity: .4; }
      .chip--c { stroke: #34d399; stroke-opacity: .4; }
      .chipt--a { fill: #6d28d9; }
      .chipt--b { fill: #1d4ed8; }
      .chipt--c { fill: #065f46; }
    }
  ]]></style>
  <defs>
    <!-- Mirrors the SPA frame wash. The CSS is an ellipse 120 percent of the
         width by 100 percent of the HEIGHT, anchored top-left — so it spans
         the whole panel. Squashing it by the aspect ratio instead pins it to
         the corner and leaves the rest looking flat. -->
    <radialGradient id="wash" cx="0" cy="0" r="1" gradientTransform="scale(1.2 1)">
      <stop class="wash" offset="0" stop-opacity="0.10"/>
      <stop class="wash" offset="0.6" stop-opacity="0.02"/>
      <stop class="wash" offset="1" stop-opacity="0"/>
    </radialGradient>
    <linearGradient id="flowv" x1="0" y1="0" x2="0" y2="1">
      <stop class="flow0" offset="0" stop-opacity="0"/>
      <stop class="flow0" offset="0.25" stop-opacity="1"/>
      <stop class="flow0" offset="0.8" stop-opacity="1"/>
      <stop class="flow0" offset="1" stop-opacity="0"/>
    </linearGradient>
    <linearGradient id="flow" x1="0" y1="0" x2="1" y2="0">
      <stop class="flow0" offset="0" stop-opacity="0"/>
      <stop class="flow0" offset="0.2" stop-opacity="1"/>
      <stop class="flow0" offset="0.8" stop-opacity="1"/>
      <stop class="flow0" offset="1" stop-opacity="0"/>
    </linearGradient>
  </defs>
  <rect class="frame" x="0.5" y="0.5" width="879" height="201" rx="12"/>
  <rect x="0.5" y="0.5" width="879" height="201" rx="12" fill="url(#wash)"/>
  <text class="cap" x="440" y="30" text-anchor="middle">MODULES INSIDE THE CONTEXT</text>
  <rect class="pill" x="214.69" y="40" width="77.68" height="21" rx="10.5"/>
  <g class="ico--wildcard"><g fill="currentColor" transform="translate(224.69 45.5) scale(0.4166666666666667)"><path fill-rule="evenodd" clip-rule="evenodd" d="M18.8923 5.29743L20.1462 5.71539C20.4197 5.80656 20.4197 6.19343 20.1462 6.2846L18.8923 6.70256C18.8027 6.73242 18.7324 6.80272 18.7026 6.8923L18.2846 8.14618C18.1934 8.41969 17.8066 8.41969 17.7154 8.14618L17.2974 6.8923C17.2676 6.80272 17.1973 6.73242 17.1077 6.70256L15.8538 6.2846C15.5803 6.19343 15.5803 5.80656 15.8538 5.71539L17.1077 5.29743C17.1973 5.26757 17.2676 5.19728 17.2974 5.1077L17.7154 3.85381C17.8066 3.5803 18.1934 3.5803 18.2846 3.85381L18.7026 5.1077C18.7324 5.19728 18.8027 5.26757 18.8923 5.29743ZM9.19361 5.04743C9.45192 4.27248 10.5481 4.2725 10.8064 5.04743L12.3429 9.65707L16.9526 11.1936C17.7275 11.4519 17.7275 12.5481 16.9526 12.8064L12.3429 14.3429L10.8064 18.9526C10.5481 19.7275 9.45192 19.7275 9.19361 18.9526L7.65706 14.3429L3.04742 12.8064C2.27247 12.5481 2.27249 11.4519 3.04742 11.1936L7.65706 9.65707L9.19361 5.04743ZM9.99999 7.37171L8.97731 10.4397C8.89271 10.6935 8.69354 10.8927 8.43973 10.9773L5.3717 12L8.43973 13.0227C8.69354 13.1073 8.89271 13.3064 8.97731 13.5603L9.99999 16.6283L11.0227 13.5603C11.1073 13.3064 11.3064 13.1073 11.5603 13.0227L14.6283 12L11.5603 10.9773C11.3064 10.8927 11.1073 10.6935 11.0227 10.4397L9.99999 7.37171ZM20.1462 17.7154L18.8923 17.2974C18.8027 17.2676 18.7324 17.1973 18.7026 17.1077L18.2846 15.8538C18.1934 15.5803 17.8066 15.5803 17.7154 15.8538L17.2974 17.1077C17.2676 17.1973 17.1973 17.2676 17.1077 17.2974L15.8538 17.7154C15.5803 17.8066 15.5803 18.1934 15.8538 18.2846L17.1077 18.7026C17.1973 18.7324 17.2676 18.8027 17.2974 18.8923L17.7154 20.1462C17.8066 20.4197 18.1934 20.4197 18.2846 20.1462L18.7026 18.8923C18.7324 18.8027 18.8027 18.7324 18.8923 18.7026L20.1462 18.2846C20.4197 18.1934 20.4197 17.8066 20.1462 17.7154Z"/></g></g>
  <text class="feeder" x="238.69" y="54">Wildcard</text>
  <rect class="pill" x="298.37" y="40" width="99.52" height="21" rx="10.5"/>
  <g class="ico--fixed"><g fill="currentColor" transform="translate(308.37 45.5) scale(0.4166666666666667)"><path d="M12.32,19.98c-.58,0-1.16-.22-1.6-.66l-6.48-6.47c-.14-.14-.22-.33-.22-.53V4.77c0-.41,.34-.75,.75-.75h7.54c.2,0,.39,.08,.53,.22l6.48,6.48c.87,.88,.87,2.31,0,3.19,0,0,0,0,0,0l-5.41,5.41c-.44,.44-1.02,.66-1.6,.66Zm-6.8-7.97l6.26,6.25c.3,.29,.78,.29,1.07,0l5.41-5.41c.29-.29,.29-.77,0-1.07l-6.26-6.26H5.52v6.48Zm13.27,1.37h0Zm-10.29-3.63c-.69,0-1.25-.56-1.25-1.25s.56-1.25,1.25-1.25,1.25,.56,1.25,1.25-.56,1.25-1.25,1.25Z"/></g></g>
  <text class="feeder" x="322.37" y="54">Fixed Values</text>
  <rect class="pill" x="403.89" y="40" width="72.22" height="21" rx="10.5"/>
  <g class="ico--combine"><g fill="currentColor" transform="translate(413.89 45.5) scale(0.4166666666666667)"><g id="link"><path d="M7.23,18.25A4,4,0,0,1,4.4,17.09a4.23,4.23,0,0,1,.15-5.95L8.31,7.35A4.44,4.44,0,0,1,11.42,6,4,4,0,0,1,14.25,7.2a4.25,4.25,0,0,1-.15,6l-1.26,1.26a.75.75,0,1,1-1.06-1.06L13,12.1a2.73,2.73,0,0,0,.14-3.84,2.77,2.77,0,0,0-3.8.15L5.61,12.19A2.74,2.74,0,0,0,5.46,16a2.5,2.5,0,0,0,2,.71.74.74,0,0,1,.81.67.75.75,0,0,1-.67.82Z"/><path d="M12.58,18A4,4,0,0,1,9.75,16.8a4.25,4.25,0,0,1,.15-6l1.26-1.26a.75.75,0,1,1,1.06,1.06L11,11.9a2.73,2.73,0,0,0-.14,3.84,2.77,2.77,0,0,0,3.8-.15l3.77-3.78A2.74,2.74,0,0,0,18.54,8a2.5,2.5,0,0,0-2-.71.74.74,0,0,1-.81-.67.75.75,0,0,1,.67-.82A4,4,0,0,1,19.6,6.91a4.23,4.23,0,0,1-.15,5.95l-3.76,3.79A4.44,4.44,0,0,1,12.58,18Z"/></g></g></g>
  <text class="feeder" x="427.89" y="54">Combine</text>
  <rect class="pill" x="482.11" y="40" width="88.6" height="21" rx="10.5"/>
  <g class="ico--derivation"><g fill="currentColor" transform="translate(492.11 45.5) scale(0.4166666666666667)"><path d="M19.75,16c0,.41-.34,.75-.75,.75H6.81l1.22,1.22c.29,.29,.29,.77,0,1.06-.15,.15-.34,.22-.53,.22s-.38-.07-.53-.22l-2.5-2.5c-.07-.07-.12-.15-.16-.24-.08-.18-.08-.39,0-.57,.04-.09,.09-.17,.16-.24l2.5-2.5c.29-.29,.77-.29,1.06,0s.29,.77,0,1.06l-1.22,1.22h12.19c.41,0,.75,.34,.75,.75ZM5,8.75h12.19l-1.22,1.22c-.29,.29-.29,.77,0,1.06,.15,.15,.34,.22,.53,.22s.38-.07,.53-.22l2.5-2.5c.07-.07,.12-.15,.16-.24,.08-.18,.08-.39,0-.57-.04-.09-.09-.17-.16-.24l-2.5-2.5c-.29-.29-.77-.29-1.06,0s-.29,.77,0,1.06l1.22,1.22H5c-.41,0-.75,.34-.75,.75s.34,.75,.75,.75Z"/></g></g>
  <text class="feeder" x="506.11" y="54">Derivation</text>
  <rect class="pill" x="576.71" y="40" width="88.6" height="21" rx="10.5"/>
  <g class="ico--constraint"><g fill="currentColor" transform="translate(586.71 45.5) scale(0.4166666666666667)"><g id="filter"><path d="M14,20.5H10a.76.76,0,0,1-.75-.75V12L3.9,4.69a.73.73,0,0,1-.07-.78A.76.76,0,0,1,4.5,3.5h15a.76.76,0,0,1,.67.41.73.73,0,0,1-.07.78L14.75,12v7.75A.76.76,0,0,1,14,20.5ZM10.75,19h2.5V11.75a.71.71,0,0,1,.15-.44L18,5H6l4.62,6.31a.71.71,0,0,1,.15.44Z"/></g></g></g>
  <text class="feeder" x="600.71" y="54">Constraint</text>
  <g class="ico--ext"><g fill="currentColor" transform="translate(434 72) scale(0.5)"><g id="angle-down"><path d="M12,14.5a.74.74,0,0,1-.53-.22L8,10.78A.75.75,0,0,1,9,9.72l3,3,3-3A.75.75,0,0,1,16,10.78l-3.5,3.5A.74.74,0,0,1,12,14.5Z"/></g></g></g>
  <rect class="card card--wp" x="50" y="104" width="124" height="66" rx="10"/>
  <g class="ico ico--wp"><g fill="currentColor" transform="translate(104 115) scale(0.6666666666666666)"><g id="sitemap"><path d="M13.5,9.75h-3A1.76,1.76,0,0,1,8.75,8V5A1.76,1.76,0,0,1,10.5,3.25h3A1.76,1.76,0,0,1,15.25,5V8A1.76,1.76,0,0,1,13.5,9.75Zm-3-5a.25.25,0,0,0-.25.25V8a.25.25,0,0,0,.25.25h3A.25.25,0,0,0,13.75,8V5a.25.25,0,0,0-.25-.25Z"/><path d="M6,19.75H4A1.76,1.76,0,0,1,2.25,18V16A1.76,1.76,0,0,1,4,14.25H6A1.76,1.76,0,0,1,7.75,16v2A1.76,1.76,0,0,1,6,19.75Zm-2-4a.25.25,0,0,0-.25.25v2a.25.25,0,0,0,.25.25H6A.25.25,0,0,0,6.25,18V16A.25.25,0,0,0,6,15.75Z"/><path d="M13,19.75H11A1.76,1.76,0,0,1,9.25,18V16A1.76,1.76,0,0,1,11,14.25h2A1.76,1.76,0,0,1,14.75,16v2A1.76,1.76,0,0,1,13,19.75Zm-2-4a.25.25,0,0,0-.25.25v2a.25.25,0,0,0,.25.25h2a.25.25,0,0,0,.25-.25V16a.25.25,0,0,0-.25-.25Z"/><path d="M20,19.75H18A1.76,1.76,0,0,1,16.25,18V16A1.76,1.76,0,0,1,18,14.25h2A1.76,1.76,0,0,1,21.75,16v2A1.76,1.76,0,0,1,20,19.75Zm-2-4a.25.25,0,0,0-.25.25v2a.25.25,0,0,0,.25.25h2a.25.25,0,0,0,.25-.25V16a.25.25,0,0,0-.25-.25Z"/><path d="M19,15.75a.76.76,0,0,1-.75-.75V13a.25.25,0,0,0-.25-.25H6a.25.25,0,0,0-.25.25v2a.75.75,0,0,1-1.5,0V13A1.76,1.76,0,0,1,6,11.25H18A1.76,1.76,0,0,1,19.75,13v2A.76.76,0,0,1,19,15.75Z"/><path d="M12,15.75a.76.76,0,0,1-.75-.75V9a.75.75,0,0,1,1.5,0v6A.76.76,0,0,1,12,15.75Z"/></g></g></g>
  <text class="nm" x="112" y="147" text-anchor="middle">WP Context</text>
  <text class="id" x="112" y="161" text-anchor="middle">rolls + resolves</text>
  <text class="lbl" x="226" y="128" text-anchor="middle">EMITS</text>
  <rect fill="url(#flow)" x="182" y="136.2" width="82" height="1.6"/>
  <path class="head" d="M264 132.5 L270 137 L264 141.5 Z"/>
  <rect class="chip chip--a" x="287.4" y="102" width="64.4" height="19" rx="9.5"/>
  <text class="chipt chipt--a" x="319.59999999999997" y="115" text-anchor="middle">$subject</text>
  <rect class="chip chip--b" x="356.79999999999995" y="102" width="51.8" height="19" rx="9.5"/>
  <text class="chipt chipt--b" x="382.69999999999993" y="115" text-anchor="middle">$style</text>
  <rect class="chip chip--c" x="312.65" y="126" width="70.69999999999999" height="19" rx="9.5"/>
  <text class="chipt chipt--c" x="348" y="139" text-anchor="middle">$lighting</text>
  <text class="varcap" x="348" y="164" text-anchor="middle">RESOLVED $VARS</text>
  <text class="lbl" x="457" y="128" text-anchor="middle">FILLS</text>
  <rect fill="url(#flow)" x="426" y="136.2" width="56" height="1.6"/>
  <path class="head" d="M482 132.5 L488 137 L482 141.5 Z"/>
  <rect class="card card--wp" x="496" y="104" width="140" height="66" rx="10"/>
  <g class="ico ico--wp"><g fill="currentColor" transform="translate(558 115) scale(0.6666666666666666)"><g id="align-left"><path d="M13.93,11h-10a.75.75,0,1,1,0-1.5h10a.75.75,0,0,1,0,1.5Z"/><path d="M20.07,7h-16a.75.75,0,0,1,0-1.5h16a.75.75,0,0,1,0,1.5Z"/><path d="M20.07,15h-16a.75.75,0,0,1,0-1.5h16a.75.75,0,0,1,0,1.5Z"/><path d="M13.93,19h-10a.75.75,0,1,1,0-1.5h10a.75.75,0,0,1,0,1.5Z"/></g></g></g>
  <text class="nm" x="566" y="147" text-anchor="middle">Prompt Assembler</text>
  <text class="id" x="566" y="161" text-anchor="middle">"A $style portrait…"</text>
  <text class="lbl" x="673" y="128" text-anchor="middle">PROMPT</text>
  <rect fill="url(#flow)" x="644" y="136.2" width="52" height="1.6"/>
  <path class="head" d="M696 132.5 L702 137 L696 141.5 Z"/>
  <rect class="card card--ext" x="710" y="104" width="124" height="66" rx="10"/>
  <g class="ico ico--ext"><g fill="currentColor" transform="translate(764 115) scale(0.6666666666666666)"><g id="bolt"><path d="M11.09,21.5a.67.67,0,0,1-.24,0,.83.83,0,0,1-.59-.81v-.11l.9-6.35H6.82a.8.8,0,0,1-.71-.43.85.85,0,0,1,0-.86l2-3.49,4.1-6.52a.79.79,0,0,1,.92-.35.83.83,0,0,1,.59.81v.11l-.9,6.35h4.35a.8.8,0,0,1,.71.43.85.85,0,0,1,0,.86l-2,3.49-4.1,6.52A.79.79,0,0,1,11.09,21.5Zm-.53-1.21h0Zm-2.63-7.6h4a.84.84,0,0,1,.83.85v.11l-.59,4.14,2.5-4,1.44-2.48h-4a.84.84,0,0,1-.83-.85v-.11l.59-4.14-2.5,4Zm-.57,1Zm9.28-3.34ZM13.44,3.7h0Z"/></g></g></g>
  <text class="nm" x="772" y="147" text-anchor="middle">CLIP Encode</text>
  <text class="id" x="772" y="161" text-anchor="middle">conditioning</text>
</svg>
